<?xml version="1.0" encoding="UTF-8"?><svg id="uuid-5dc710b6-250f-4f47-86ff-70a022a00b36" xmlns="http://www.w3.org/2000/svg" viewBox="0 0 314.83 144.93"><defs><style>.uuid-eb49cb5e-f474-443c-b24d-88ba6e098f6b{fill:#201d14;}</style></defs><path class="uuid-eb49cb5e-f474-443c-b24d-88ba6e098f6b" d="M3.28,0h12.2v46.26h52.05v9.58H3.28V0Z"/><path class="uuid-eb49cb5e-f474-443c-b24d-88ba6e098f6b" d="M81.9,0h61.62v9.58h-49.42v13.28h37.69v9.57h-37.69v23.4h-12.2V0Z"/><path class="uuid-eb49cb5e-f474-443c-b24d-88ba6e098f6b" d="M184.52,9.58h-28.96V0h70.19v9.58h-29.03v46.26h-12.2V9.58Z"/><path class="uuid-eb49cb5e-f474-443c-b24d-88ba6e098f6b" d="M240.89,0h29.42c26.87,0,41.24,12.43,41.24,27.88s-14.36,27.95-41.24,27.95h-29.42V0ZM270.31,46.26c20.23,0,28.96-8.26,28.96-18.38s-8.72-18.3-28.96-18.3h-17.22v36.68h17.22Z"/><path class="uuid-eb49cb5e-f474-443c-b24d-88ba6e098f6b" d="M28.96,98.68H0v-9.58h70.2v9.58h-29.04v46.26h-12.2v-46.26Z"/><path class="uuid-eb49cb5e-f474-443c-b24d-88ba6e098f6b" d="M85.33,88.87h38.46c16.29,0,25.25,7.34,25.25,16.37,0,7.34-6.02,13.52-17.07,15.52l18.61,24.17h-14.91l-18.14-23.48h-19.93v23.48h-12.28v-56.06ZM123.79,111.88c9.35,0,13.05-3.01,13.05-6.64s-3.71-6.72-13.05-6.72h-26.18v13.36h26.18Z"/><path class="uuid-eb49cb5e-f474-443c-b24d-88ba6e098f6b" d="M156.45,89.1h13.59l26.72,43.09,26.72-43.09h13.51l-34.6,55.83h-11.27l-34.68-55.83Z"/><path class="uuid-eb49cb5e-f474-443c-b24d-88ba6e098f6b" d="M250.58,89.1h12.2v46.26h52.04v9.58h-64.25v-55.83Z"/></svg>